<svg width="19" height="59" fill="none" xmlns="http://www.w3.org/2000/svg"><path d="m18 29.28 1 .009-1-.009ZM.001 56.94a1 1 0 0 0 .937 1.058l8.984.548a1 1 0 0 0 .121-1.997l-7.985-.486.487-7.986a1 1 0 1 0-1.997-.121l-.547 8.983ZM1 1l-.667.745.002.002.008.007a12.532 12.532 0 0 1 .172.157 73.4 73.4 0 0 1 2.442 2.385 80.969 80.969 0 0 1 5.798 6.6c2.105 2.692 4.19 5.762 5.737 8.937 1.552 3.182 2.534 6.41 2.508 9.438l1 .009 1 .009c.03-3.452-1.084-6.998-2.71-10.333-1.629-3.342-3.802-6.533-5.96-9.292A82.958 82.958 0 0 0 2.424.96a49.306 49.306 0 0 0-.753-.7L1.668.256S1.667.254 1 1Zm17 28.28-1-.009c-.027 2.985-1.037 6.159-2.598 9.281-1.558 3.116-3.636 6.122-5.727 8.756a80.424 80.424 0 0 1-7.634 8.296 47.846 47.846 0 0 1-.66.608l-.034.03-.008.008-.002.001L1 57l.663.748h.001l.003-.003.01-.01c.01-.007.022-.019.04-.034l.146-.132a74.735 74.735 0 0 0 2.488-2.4 82.423 82.423 0 0 0 5.89-6.617c2.144-2.7 4.31-5.826 5.95-9.105 1.636-3.272 2.779-6.756 2.808-10.158l-1-.009Z"/></svg>