<svg width="44" height="42" fill="none" xmlns="http://www.w3.org/2000/svg"><path d="M23.189 35.804a2.606 2.606 0 0 0-2.378 0l-9.592 4.902c-2.032 1.038-4.32-.837-3.768-3.09l2.242-9.17a2.761 2.761 0 0 0-.603-2.477l-7.404-8.41c-1.475-1.676-.427-4.354 1.773-4.527l10.328-.812a2.661 2.661 0 0 0 2.217-1.585l3.576-8.042c.944-2.124 3.896-2.124 4.84 0l3.576 8.042c.401.902 1.25 1.509 2.217 1.585l10.328.812c2.2.173 3.249 2.851 1.773 4.527l-7.404 8.41a2.761 2.761 0 0 0-.603 2.477l2.242 9.17c.551 2.253-1.736 4.129-3.768 3.09l-9.592-4.902Z" stroke="#3470A5" stroke-width="2" stroke-linecap="round" stroke-linejoin="round"/></svg>