<svg width="42" height="42" fill="none" xmlns="http://www.w3.org/2000/svg"><path d="M41 19.752 22.089 37.587C19.772 39.773 16.63 41 13.354 41c-3.277 0-6.419-1.227-8.736-3.413C2.302 35.404 1 32.44 1 29.35s1.302-6.053 3.618-8.238L23.53 3.275C25.074 1.818 27.17 1 29.353 1c2.184 0 4.279.818 5.823 2.275 1.545 1.457 2.413 3.432 2.413 5.492s-.868 4.036-2.413 5.493L16.245 32.095a4.247 4.247 0 0 1-2.912 1.138c-1.092 0-2.14-.41-2.912-1.138a3.775 3.775 0 0 1-1.206-2.746c0-1.03.434-2.018 1.206-2.746l17.47-16.458" stroke="#3470A5" stroke-width="2" stroke-linecap="round" stroke-linejoin="round"/></svg>