<svg width="172" height="50" fill="none" xmlns="http://www.w3.org/2000/svg"><path d="M70.1 11v14h-1.3V13.62L64 25h-2.2l-4.6-11.3V25h-1.3V11h1.94l5.06 12.9L68.16 11h1.94Zm6.756 12.14c.947 0 1.68-.14 2.2-.42.533-.28.927-.747 1.18-1.4l1.24.14c-.053 1.147-.5 2.06-1.34 2.74-.84.667-1.933 1-3.28 1-1.533 0-2.747-.467-3.64-1.4-.88-.947-1.32-2.273-1.32-3.98 0-1.707.44-3.027 1.32-3.96.893-.933 2.107-1.4 3.64-1.4 1.08 0 1.967.187 2.66.56.693.373 1.213 1 1.56 1.88.36.867.54 2.04.54 3.52h-8.38c.12.907.5 1.587 1.14 2.04.653.453 1.48.68 2.48.68Zm0-6.6c-1 0-1.827.22-2.48.66-.64.44-1.02 1.107-1.14 2l7.14.02c-.147-1-.52-1.693-1.12-2.08-.6-.4-1.4-.6-2.4-.6Zm12.48 8.16c-.76.2-1.414.3-1.96.3-1 0-1.694-.34-2.08-1.02-.387-.68-.587-1.76-.6-3.24v-4h-1.94v-2.08h1.94V12.4l1.38-.2v2.46h2.74v2.08h-2.74v4c0 .733.106 1.28.32 1.64.226.347.58.52 1.06.52.36 0 .773-.087 1.24-.26l.64 2.06Zm10.538-3.2c0 .427.047.733.14.92.094.173.24.28.44.32.214.04.567.06 1.06.06V25c-.8 0-1.413-.12-1.84-.36-.413-.24-.7-.587-.86-1.04-.146-.453-.226-1.067-.24-1.84-.266 1.133-.713 1.993-1.34 2.58-.626.573-1.373.86-2.24.86-1.226 0-2.18-.3-2.86-.9-.666-.6-1-1.4-1-2.4 0-1.013.34-1.813 1.02-2.4.694-.587 1.7-.88 3.02-.88l3.4-.04c-.026-.547-.133-.947-.32-1.2-.173-.267-.433-.44-.78-.52-.333-.093-.806-.14-1.42-.14-.866 0-1.553.12-2.06.36-.506.227-.826.673-.96 1.34l-1.24-.22c.16-1.147.6-2.02 1.32-2.62.72-.613 1.7-.92 2.94-.92 1.374 0 2.354.333 2.94 1 .587.653.88 1.72.88 3.2v2.64Zm-4.82 1.66c.96 0 1.727-.193 2.3-.58.574-.4.947-1.113 1.12-2.14h-3.3c-1.826 0-2.74.487-2.74 1.46 0 .467.227.793.68.98.454.187 1.1.28 1.94.28Zm13.488-8.7c1.48 0 2.653.467 3.52 1.4.88.933 1.32 2.247 1.32 3.94s-.44 3.007-1.32 3.94c-.867.92-2.04 1.38-3.52 1.38-1.053 0-1.9-.22-2.54-.66-.64-.453-1.1-1.127-1.38-2.02v3.84l-.2 2.38h-1.1v-14h1.1l.2 2.38v.1c.28-.893.74-1.56 1.38-2 .64-.453 1.487-.68 2.54-.68Zm-.08 8.6c1.093 0 1.967-.273 2.62-.82.667-.547 1-1.36 1-2.44 0-1.08-.333-1.893-1-2.44-.653-.56-1.527-.84-2.62-.84-1.133 0-2.053.253-2.76.76-.707.507-1.06 1.347-1.06 2.52 0 2.173 1.273 3.26 3.82 3.26Zm11.811-8.4c.706 0 1.253.193 1.64.58.4.387.6.967.6 1.74 0 .8-.2 1.74-.6 2.82h-1.3c.266-.707.4-1.3.4-1.78 0-.453-.127-.78-.38-.98-.24-.2-.607-.3-1.1-.3-.934 0-1.647.453-2.14 1.36-.48.893-.72 1.98-.72 3.26V25h-1.3V14.66h1.08l.22 3.3v.16c.253-1.173.673-2.04 1.26-2.6.6-.573 1.38-.86 2.34-.86Zm5.065-1.68a.993.993 0 0 1-1-1c0-.267.1-.493.3-.68.2-.2.433-.3.7-.3.266 0 .5.1.7.3.2.187.3.413.3.68 0 .28-.1.52-.3.72a.995.995 0 0 1-.7.28Zm-.64 1.68h1.3V25h-1.3V14.66Zm8.688 10.54c-1.68 0-2.973-.473-3.88-1.42-.907-.96-1.36-2.267-1.36-3.92 0-1.68.453-3 1.36-3.96s2.2-1.44 3.88-1.44c1.667 0 2.953.48 3.86 1.44s1.36 2.28 1.36 3.96c0 1.653-.453 2.96-1.36 3.92-.907.947-2.193 1.42-3.86 1.42Zm0-2.06c1.293 0 2.28-.253 2.96-.76.693-.507 1.04-1.347 1.04-2.52 0-1.187-.34-2.033-1.02-2.54-.68-.52-1.673-.78-2.98-.78s-2.313.26-3.02.78c-.707.507-1.06 1.353-1.06 2.54 0 1.16.353 2 1.06 2.52.72.507 1.727.76 3.02.76Zm12.121-8.48c.707 0 1.253.193 1.64.58.4.387.6.967.6 1.74 0 .8-.2 1.74-.6 2.82h-1.3c.267-.707.4-1.3.4-1.78 0-.453-.127-.78-.38-.98-.24-.2-.607-.3-1.1-.3-.933 0-1.647.453-2.14 1.36-.48.893-.72 1.98-.72 3.26V25h-1.3V14.66h1.08l.22 3.3v.16c.253-1.173.673-2.04 1.26-2.6.6-.573 1.38-.86 2.34-.86ZM61.444 35.636c0 .32.02.54.06.66.04.12.112.196.216.228.104.024.308.036.612.036V38c-.52 0-.916-.076-1.188-.228a1.156 1.156 0 0 1-.552-.636c-.096-.28-.152-.644-.168-1.092-.168.688-.456 1.208-.864 1.56-.4.344-.888.516-1.464.516-.856 0-1.496-.184-1.92-.552-.424-.376-.636-.88-.636-1.512s.216-1.132.648-1.5c.44-.376 1.116-.568 2.028-.576h2.208c-.016-.384-.148-.644-.396-.78-.248-.136-.664-.204-1.248-.204-.568 0-1.004.068-1.308.204-.296.136-.48.376-.552.72l-.996-.168c.128-.68.428-1.208.9-1.584.472-.376 1.124-.564 1.956-.564 1.776 0 2.664.82 2.664 2.46v1.572ZM58.18 36.74c.6 0 1.076-.096 1.428-.288.36-.2.6-.58.72-1.14h-2.112c-.576 0-.996.06-1.26.18-.264.112-.396.3-.396.564 0 .256.128.436.384.54.264.096.676.144 1.236.144Zm10.587-5.136-2.76 3.18L68.767 38h-1.416l-2.136-2.496h-.756V38h-1.044v-6.396h1.044V34.1h.72l2.172-2.496h1.416Zm6.388 4.032c0 .32.02.54.06.66.04.12.112.196.216.228.104.024.308.036.612.036V38c-.52 0-.916-.076-1.188-.228a1.156 1.156 0 0 1-.552-.636c-.096-.28-.152-.644-.168-1.092-.168.688-.456 1.208-.864 1.56-.4.344-.888.516-1.464.516-.856 0-1.496-.184-1.92-.552-.424-.376-.636-.88-.636-1.512s.216-1.132.648-1.5c.44-.376 1.116-.568 2.028-.576h2.208c-.016-.384-.148-.644-.396-.78-.248-.136-.664-.204-1.248-.204-.568 0-1.004.068-1.308.204-.296.136-.48.376-.552.72l-.996-.168c.128-.68.428-1.208.9-1.584.472-.376 1.124-.564 1.956-.564 1.776 0 2.664.82 2.664 2.46v1.572ZM71.89 36.74c.6 0 1.076-.096 1.428-.288.36-.2.6-.58.72-1.14h-2.112c-.576 0-.996.06-1.26.18-.264.112-.396.3-.396.564 0 .256.128.436.384.54.264.096.676.144 1.236.144Zm12.099.048V40.4h-.876l-.12-2.4h-4.872l-.12 2.4h-.876v-3.612h.912c.264-.024.456-.128.576-.312.12-.192.2-.536.24-1.032.04-.496.06-1.296.06-2.4v-1.44h4.236v5.184h.84Zm-1.86 0v-3.792h-2.208v.048c0 .928-.028 1.696-.084 2.304-.048.6-.128 1.08-.24 1.44h2.532Zm5.83-.072c.64 0 1.108-.084 1.404-.252.296-.176.516-.452.66-.828l.996.084a2.151 2.151 0 0 1-.444 1.26 2.69 2.69 0 0 1-1.092.84c-.456.2-.964.3-1.524.3-1.008 0-1.804-.292-2.388-.876-.576-.584-.864-1.4-.864-2.448s.288-1.86.864-2.436c.584-.584 1.38-.876 2.388-.876 1.032 0 1.816.276 2.352.828.536.552.804 1.492.804 2.82h-5.364c.072.504.296.896.672 1.176.384.272.896.408 1.536.408Zm0-3.84c-.6 0-1.092.128-1.476.384-.376.248-.612.6-.708 1.056h4.308c-.208-.96-.916-1.44-2.124-1.44Zm11.856-1.272V38h-1.02v-5.028L96.72 38h-1.272l-2.256-5.232V38h-.996v-6.396h1.608l1.98 4.656.3.552.288-.552 1.872-4.656h1.572Zm6.413 0h1.02V38h-1.02v-4.728l-4.2 4.728h-1.02v-6.396h1.02v4.716l4.2-4.716ZM114.597 38h-1.008v-1.932h-2.136c-.232 0-.4-.004-.504-.012L109.821 38h-1.224l1.176-2.16c-.96-.328-1.44-1.004-1.44-2.028 0-1.472 1.04-2.208 3.12-2.208h3.144V38Zm-1.008-5.004h-2.136c-.528 0-.928.016-1.2.048-.264.032-.464.108-.6.228-.136.112-.204.292-.204.54 0 .248.068.436.204.564.136.12.34.2.612.24.28.032.676.048 1.188.048h2.136v-1.668Zm12.08-1.392h1.02V38h-1.02v-2.496h-4.2V38h-1.02v-6.396h1.02V34.1h4.2v-2.496Zm7.963 4.032c0 .32.02.54.06.66.04.12.112.196.216.228.104.024.308.036.612.036V38c-.52 0-.916-.076-1.188-.228a1.156 1.156 0 0 1-.552-.636c-.096-.28-.152-.644-.168-1.092-.168.688-.456 1.208-.864 1.56-.4.344-.888.516-1.464.516-.856 0-1.496-.184-1.92-.552-.424-.376-.636-.88-.636-1.512s.216-1.132.648-1.5c.44-.376 1.116-.568 2.028-.576h2.208c-.016-.384-.148-.644-.396-.78-.248-.136-.664-.204-1.248-.204-.568 0-1.004.068-1.308.204-.296.136-.48.376-.552.72l-.996-.168c.128-.68.428-1.208.9-1.584.472-.376 1.124-.564 1.956-.564 1.776 0 2.664.82 2.664 2.46v1.572Zm-3.264 1.104c.6 0 1.076-.096 1.428-.288.36-.2.6-.58.72-1.14h-2.112c-.576 0-.996.06-1.26.18-.264.112-.396.3-.396.564 0 .256.128.436.384.54.264.096.676.144 1.236.144Zm9.495-2.1c.472.064.876.216 1.212.456.336.24.504.564.504.972 0 .624-.244 1.104-.732 1.44-.488.328-1.208.492-2.16.492h-3.084v-6.396h3.084c.864 0 1.488.132 1.872.396.392.256.588.664.588 1.224 0 .32-.12.612-.36.876-.232.256-.54.436-.924.54Zm-3.24-.408h2.064c.552 0 .932-.064 1.14-.192.216-.128.324-.284.324-.468 0-.384-.488-.576-1.464-.576h-2.064v1.236Zm2.064 2.364c1.248 0 1.872-.252 1.872-.756 0-.248-.14-.444-.42-.588-.28-.144-.764-.216-1.452-.216h-2.064v1.56h2.064Zm7.114-3.06c2.08 0 3.12.752 3.12 2.256 0 1.472-1.04 2.208-3.12 2.208h-3.144v-6.396h1.008v1.932h2.136Zm3.912-1.932h1.02V38h-1.02v-6.396Zm-3.912 4.992c.536 0 .936-.016 1.2-.048.264-.032.464-.104.6-.216.136-.112.204-.292.204-.54 0-.248-.068-.432-.204-.552-.136-.128-.344-.208-.624-.24a8.665 8.665 0 0 0-1.176-.06h-2.136v1.656h2.136Zm11.396-4.992-2.76 3.18 2.76 3.216h-1.416l-2.136-2.496h-.756V38h-1.044v-6.396h1.044V34.1h.72l2.172-2.496h1.416Zm3.222 6.516c-1.064 0-1.888-.292-2.472-.876-.576-.592-.864-1.4-.864-2.424 0-1.04.288-1.856.864-2.448.584-.592 1.408-.888 2.472-.888 1.072 0 1.896.296 2.472.888.584.592.876 1.408.876 2.448 0 1.024-.292 1.832-.876 2.424-.576.584-1.4.876-2.472.876Zm0-1.404c.808 0 1.408-.152 1.8-.456.4-.304.6-.784.6-1.44 0-.672-.2-1.164-.6-1.476-.392-.312-.992-.468-1.8-.468s-1.424.156-1.848.468c-.416.312-.624.804-.624 1.476 0 .648.208 1.128.624 1.44.424.304 1.04.456 1.848.456Zm8.811-2.076c.472.064.876.216 1.212.456.336.24.504.564.504.972 0 .624-.244 1.104-.732 1.44-.488.328-1.208.492-2.16.492h-3.084v-6.396h3.084c.864 0 1.488.132 1.872.396.392.256.588.664.588 1.224 0 .32-.12.612-.36.876-.232.256-.54.436-.924.54Zm-3.24-.408h2.064c.552 0 .932-.064 1.14-.192.216-.128.324-.284.324-.468 0-.384-.488-.576-1.464-.576h-2.064v1.236Zm2.064 2.364c1.248 0 1.872-.252 1.872-.756 0-.248-.14-.444-.42-.588-.28-.144-.764-.216-1.452-.216h-2.064v1.56h2.064Z" fill="#2B2B2B"/><circle cx="25" cy="25" r="25" fill="#023E73"/><circle cx="25" cy="25.001" r="4.721" stroke="#fff"/><circle cx="25" cy="24.999" r="10.099" stroke="#fff"/><circle cx="25" cy="25" r="15.539" stroke="#fff"/><circle cx="25" cy="25.001" r="21.167" stroke="#fff"/><path d="m9.149 39.78 1.07 1.072 2.766-2.765-1.071-1.072-2.765 2.765Z" fill="#fff"/><path d="m9.15 39.781 2.774-2.754 1.05 1.072-2.763 2.743-1.06-1.061ZM25.512 18.19l-13.77 16.562 3.505 3.505 16.563-13.77-6.298-6.297ZM15.247 38.257l16.563-13.77-16.563 13.77Z" fill="#fff"/><path d="m11.752 34.742 13.77-16.543 6.277 6.3-16.55 13.738-3.497-3.495ZM26.107 16.497l7.396 7.395a7.427 7.427 0 0 0 5.141-1.993L28.101 11.355a7.428 7.428 0 0 0-1.994 5.142Z" fill="#fff"/><path d="m33.502 23.879-7.384-7.391a7.416 7.416 0 0 1 1.994-5.12L38.633 21.91a7.485 7.485 0 0 1-5.045 1.968h-.086ZM38.856 11.143c-2.485-2.485-6.284-2.845-9.16-1.094l10.255 10.254c1.75-2.875 1.39-6.674-1.095-9.16Z" fill="#fff"/><path d="M29.707 10.04a7.645 7.645 0 0 1 3.878-1.063 7.39 7.39 0 0 1 5.26 2.178 7.43 7.43 0 0 1 1.103 9.125l-10.24-10.24Z" fill="#fff"/></svg>