<svg width="156" height="50" fill="none" xmlns="http://www.w3.org/2000/svg"><path d="M66.98 16.2c-.32-1.173-.893-2-1.72-2.48-.813-.48-1.853-.72-3.12-.72-.933 0-1.773.187-2.52.56-.747.36-1.34.92-1.78 1.68-.427.747-.64 1.667-.64 2.76 0 1.093.213 2.02.64 2.78a4.232 4.232 0 0 0 1.78 1.68c.747.36 1.587.54 2.52.54 1.28 0 2.34-.26 3.18-.78.84-.533 1.407-1.407 1.7-2.62h1.3c-.347 1.947-1.047 3.367-2.1 4.26-1.04.893-2.4 1.34-4.08 1.34-1.227 0-2.313-.293-3.26-.88-.933-.587-1.667-1.427-2.2-2.52-.52-1.093-.78-2.36-.78-3.8s.26-2.707.78-3.8c.533-1.093 1.267-1.933 2.2-2.52.947-.587 2.033-.88 3.26-.88 3.36 0 5.407 1.8 6.14 5.4h-1.3Zm8.039-1.54c.706 0 1.253.193 1.64.58.4.387.6.967.6 1.74 0 .8-.2 1.74-.6 2.82h-1.3c.266-.707.4-1.3.4-1.78 0-.453-.127-.78-.38-.98-.24-.2-.607-.3-1.1-.3-.934 0-1.647.453-2.14 1.36-.48.893-.72 1.98-.72 3.26V25h-1.3V14.66h1.08l.22 3.3v.16c.253-1.173.673-2.04 1.26-2.6.6-.573 1.38-.86 2.34-.86Zm5.065-1.68a.993.993 0 0 1-1-1c0-.267.1-.493.3-.68.2-.2.433-.3.7-.3.266 0 .5.1.7.3.2.187.3.413.3.68a.993.993 0 0 1-1 1Zm-.64 1.68h1.3V25h-1.3V14.66Zm12.188 6.84c0 .427.047.733.14.92a.61.61 0 0 0 .44.32c.213.04.567.06 1.06.06V25c-.8 0-1.413-.12-1.84-.36-.413-.24-.7-.587-.86-1.04-.147-.453-.227-1.067-.24-1.84-.266 1.133-.713 1.993-1.34 2.58-.627.573-1.373.86-2.24.86-1.227 0-2.18-.3-2.86-.9-.666-.6-1-1.4-1-2.4 0-1.013.34-1.813 1.02-2.4.694-.587 1.7-.88 3.02-.88l3.4-.04c-.026-.547-.133-.947-.32-1.2-.173-.267-.433-.44-.78-.52-.333-.093-.806-.14-1.42-.14-.867 0-1.553.12-2.06.36-.506.227-.826.673-.96 1.34l-1.24-.22c.16-1.147.6-2.02 1.32-2.62.72-.613 1.7-.92 2.94-.92 1.374 0 2.353.333 2.94 1 .587.653.88 1.72.88 3.2v2.64Zm-4.82 1.66c.96 0 1.727-.193 2.3-.58.574-.4.947-1.113 1.12-2.14h-3.3c-1.826 0-2.74.487-2.74 1.46 0 .467.227.793.68.98.454.187 1.1.28 1.94.28Zm13.168-8.5c.706 0 1.253.193 1.64.58.4.387.6.967.6 1.74 0 .8-.2 1.74-.6 2.82h-1.3c.266-.707.4-1.3.4-1.78 0-.453-.127-.78-.38-.98-.24-.2-.607-.3-1.1-.3-.934 0-1.647.453-2.14 1.36-.48.893-.72 1.98-.72 3.26V25h-1.3V14.66h1.08l.22 3.3v.16c.253-1.173.673-2.04 1.26-2.6.6-.573 1.38-.86 2.34-.86ZM63.088 31.604h1.02V38H55.54v-6.396h1.02v4.992h2.76v-4.992h1.02v4.992h2.748v-4.992Zm7.566 0-2.76 3.18L70.654 38h-1.416l-2.136-2.496h-.756V38h-1.044v-6.396h1.044V34.1h.72l2.172-2.496h1.416Zm3.222 6.516c-1.064 0-1.888-.292-2.472-.876-.576-.592-.864-1.4-.864-2.424 0-1.04.288-1.856.864-2.448.584-.592 1.408-.888 2.472-.888 1.072 0 1.896.296 2.472.888.584.592.876 1.408.876 2.448 0 1.024-.292 1.832-.876 2.424-.576.584-1.4.876-2.472.876Zm0-1.404c.808 0 1.408-.152 1.8-.456.4-.304.6-.784.6-1.44 0-.672-.2-1.164-.6-1.476-.392-.312-.992-.468-1.8-.468s-1.424.156-1.848.468c-.416.312-.624.804-.624 1.476 0 .648.208 1.128.624 1.44.424.304 1.04.456 1.848.456ZM83.734 38h-1.02v-5.004h-2.209v.048c0 1.456-.067 2.532-.203 3.228-.129.696-.345 1.16-.649 1.392-.296.224-.744.336-1.344.336v-1.2c.385 0 .653-.072.805-.216.151-.144.251-.46.3-.948.055-.496.084-1.36.084-2.592v-1.44h4.236V38Zm6.983-2.364c0 .32.02.54.06.66.04.12.112.196.216.228.104.024.308.036.612.036V38c-.52 0-.916-.076-1.188-.228a1.156 1.156 0 0 1-.552-.636c-.096-.28-.152-.644-.168-1.092-.168.688-.456 1.208-.864 1.56-.4.344-.888.516-1.464.516-.856 0-1.496-.184-1.92-.552-.424-.376-.636-.88-.636-1.512s.216-1.132.648-1.5c.44-.376 1.116-.568 2.028-.576h2.208c-.016-.384-.148-.644-.396-.78-.248-.136-.664-.204-1.248-.204-.568 0-1.004.068-1.308.204-.296.136-.48.376-.552.72l-.996-.168c.128-.68.428-1.208.9-1.584.472-.376 1.124-.564 1.956-.564 1.776 0 2.664.82 2.664 2.46v1.572Zm-3.264 1.104c.6 0 1.076-.096 1.428-.288.36-.2.6-.58.72-1.14H87.49c-.576 0-.996.06-1.26.18-.264.112-.396.3-.396.564 0 .256.128.436.384.54.264.096.676.144 1.236.144Zm13.376 1.38c-1.064 0-1.888-.292-2.472-.876-.576-.592-.864-1.4-.864-2.424 0-1.04.288-1.856.864-2.448.584-.592 1.408-.888 2.472-.888 1.072 0 1.896.296 2.472.888.584.592.876 1.408.876 2.448 0 1.024-.292 1.832-.876 2.424-.576.584-1.4.876-2.472.876Zm0-1.404c.808 0 1.408-.152 1.8-.456.4-.304.6-.784.6-1.44 0-.672-.2-1.164-.6-1.476-.392-.312-.992-.468-1.8-.468s-1.424.156-1.848.468c-.416.312-.624.804-.624 1.476 0 .648.208 1.128.624 1.44.424.304 1.04.456 1.848.456Zm7.938-5.232c.96 0 1.716.288 2.268.864.56.568.84 1.372.84 2.412 0 1.048-.28 1.86-.84 2.436-.552.568-1.308.852-2.268.852-.672 0-1.212-.14-1.62-.42-.408-.28-.696-.696-.864-1.248v2.196l-.12 1.428h-.9v-8.4h.9l.12 1.428v.12c.168-.552.456-.968.864-1.248s.948-.42 1.62-.42Zm-.072 5.148c.712 0 1.248-.164 1.608-.492.368-.336.552-.796.552-1.38 0-.584-.184-1.04-.552-1.368-.36-.336-.896-.504-1.608-.504-.768 0-1.364.164-1.788.492-.416.32-.624.78-.624 1.38 0 1.248.804 1.872 2.412 1.872Zm10.171-.996c0 .32.02.54.06.66.04.12.112.196.216.228.104.024.308.036.612.036V38c-.52 0-.916-.076-1.188-.228a1.156 1.156 0 0 1-.552-.636c-.096-.28-.152-.644-.168-1.092-.168.688-.456 1.208-.864 1.56-.4.344-.888.516-1.464.516-.856 0-1.496-.184-1.92-.552-.424-.376-.636-.88-.636-1.512s.216-1.132.648-1.5c.44-.376 1.116-.568 2.028-.576h2.208c-.016-.384-.148-.644-.396-.78-.248-.136-.664-.204-1.248-.204-.568 0-1.004.068-1.308.204-.296.136-.48.376-.552.72l-.996-.168c.128-.68.428-1.208.9-1.584.472-.376 1.124-.564 1.956-.564 1.776 0 2.664.82 2.664 2.46v1.572Zm-3.264 1.104c.6 0 1.076-.096 1.428-.288.36-.2.6-.58.72-1.14h-2.112c-.576 0-.996.06-1.26.18-.264.112-.396.3-.396.564 0 .256.128.436.384.54.264.096.676.144 1.236.144Zm9.566-5.136v1.392h-2.124V38h-1.02v-5.004h-2.148v-1.392h5.292Zm4.267 6.516c-1.064 0-1.888-.292-2.472-.876-.576-.592-.864-1.4-.864-2.424 0-1.04.288-1.856.864-2.448.584-.592 1.408-.888 2.472-.888 1.072 0 1.896.296 2.472.888.584.592.876 1.408.876 2.448 0 1.024-.292 1.832-.876 2.424-.576.584-1.4.876-2.472.876Zm0-1.404c.808 0 1.408-.152 1.8-.456.4-.304.6-.784.6-1.44 0-.672-.2-1.164-.6-1.476-.392-.312-.992-.468-1.8-.468s-1.424.156-1.848.468c-.416.312-.624.804-.624 1.476 0 .648.208 1.128.624 1.44.424.304 1.04.456 1.848.456Zm7.937-5.232c.96 0 1.716.288 2.268.864.56.568.84 1.372.84 2.412 0 1.048-.28 1.86-.84 2.436-.552.568-1.308.852-2.268.852-.672 0-1.212-.14-1.62-.42-.408-.28-.696-.696-.864-1.248v2.196l-.12 1.428h-.9v-8.4h.9l.12 1.428v.12c.168-.552.456-.968.864-1.248s.948-.42 1.62-.42Zm-.072 5.148c.712 0 1.248-.164 1.608-.492.368-.336.552-.796.552-1.38 0-.584-.184-1.04-.552-1.368-.36-.336-.896-.504-1.608-.504-.768 0-1.364.164-1.788.492-.416.32-.624.78-.624 1.38 0 1.248.804 1.872 2.412 1.872Zm7.486 1.488c-1.064 0-1.888-.292-2.472-.876-.576-.592-.864-1.4-.864-2.424 0-1.04.288-1.856.864-2.448.584-.592 1.408-.888 2.472-.888 1.072 0 1.896.296 2.472.888.584.592.876 1.408.876 2.448 0 1.024-.292 1.832-.876 2.424-.576.584-1.4.876-2.472.876Zm0-1.404c.808 0 1.408-.152 1.8-.456.4-.304.6-.784.6-1.44 0-.672-.2-1.164-.6-1.476-.392-.312-.992-.468-1.8-.468s-1.424.156-1.848.468c-.416.312-.624.804-.624 1.476 0 .648.208 1.128.624 1.44.424.304 1.04.456 1.848.456Zm8.811-2.076c.472.064.876.216 1.212.456.336.24.504.564.504.972 0 .624-.244 1.104-.732 1.44-.488.328-1.208.492-2.16.492h-3.084v-6.396h3.084c.864 0 1.488.132 1.872.396.392.256.588.664.588 1.224 0 .32-.12.612-.36.876-.232.256-.54.436-.924.54Zm-3.24-.408h2.064c.552 0 .932-.064 1.14-.192.216-.128.324-.284.324-.468 0-.384-.488-.576-1.464-.576h-2.064v1.236Zm2.064 2.364c1.248 0 1.872-.252 1.872-.756 0-.248-.14-.444-.42-.588-.28-.144-.764-.216-1.452-.216h-2.064v1.56h2.064Z" fill="#2B2B2B"/><circle cx="25" cy="25" r="25" fill="#023E73"/><circle cx="25" cy="25.001" r="4.721" stroke="#fff"/><circle cx="25" cy="24.999" r="10.099" stroke="#fff"/><circle cx="25" cy="25" r="15.539" stroke="#fff"/><circle cx="25" cy="25.001" r="21.167" stroke="#fff"/><path d="m9.149 39.78 1.07 1.072 2.766-2.765-1.071-1.072-2.765 2.765Z" fill="#fff"/><path d="m9.15 39.781 2.774-2.754 1.05 1.072-2.763 2.743-1.06-1.061ZM25.512 18.19l-13.77 16.562 3.505 3.505 16.563-13.77-6.298-6.297ZM15.247 38.257l16.563-13.77-16.563 13.77Z" fill="#fff"/><path d="m11.752 34.742 13.77-16.543 6.277 6.3-16.55 13.738-3.497-3.495ZM26.107 16.497l7.396 7.395a7.427 7.427 0 0 0 5.141-1.993L28.101 11.355a7.428 7.428 0 0 0-1.994 5.142Z" fill="#fff"/><path d="m33.502 23.879-7.384-7.391a7.416 7.416 0 0 1 1.994-5.12L38.633 21.91a7.485 7.485 0 0 1-5.045 1.968h-.086ZM38.856 11.143c-2.485-2.485-6.284-2.845-9.16-1.094l10.255 10.254c1.75-2.875 1.39-6.674-1.095-9.16Z" fill="#fff"/><path d="M29.707 10.04a7.645 7.645 0 0 1 3.878-1.063 7.39 7.39 0 0 1 5.26 2.178 7.43 7.43 0 0 1 1.103 9.125l-10.24-10.24Z" fill="#fff"/></svg>