<svg width="16" height="16" fill="none" xmlns="http://www.w3.org/2000/svg"><g clip-path="url(#a)" fill="#023E73"><path d="M1.538 5.103h2.17a.83.83 0 0 0 .83-.83.6.6 0 0 1 .6-.601h5.725a.6.6 0 0 1 .6.6c0 .459.371.83.83.83h2.17a.83.83 0 0 0 .83-.83V2.656A2.352 2.352 0 0 0 12.942.305H3.059A2.351 2.351 0 0 0 .707 2.656v1.616c0 .459.372.83.831.83Z"/><path d="m15.935 13.542-1.055-3.71a4.264 4.264 0 0 0-3.672-3.068V5.78a1.131 1.131 0 1 0-2.262 0v.95H7.054V5.78a1.13 1.13 0 1 0-2.262 0v.984A4.263 4.263 0 0 0 1.12 9.832l-1.055 3.71a1.69 1.69 0 0 0 1.625 2.153h12.62a1.692 1.692 0 0 0 1.625-2.153Zm-8.36.023c0 .161-.13.292-.292.292H5.785a.292.292 0 0 1-.293-.292v-1.498c0-.162.13-.293.293-.293h1.498c.161 0 .292.131.292.293v1.498Zm0-2.935c0 .162-.13.293-.292.293H5.785a.292.292 0 0 1-.292-.293V9.133c0-.162.13-.293.292-.293h1.498c.161 0 .292.131.292.293v1.497Zm2.933 2.934c0 .162-.13.293-.292.293H8.718a.292.292 0 0 1-.292-.293v-1.497c0-.162.13-.292.292-.292h1.498c.162 0 .293.13.293.292v1.497Zm0-2.934c0 .162-.13.293-.292.293H8.719a.292.292 0 0 1-.293-.293V9.133c0-.162.131-.292.293-.292h1.497c.162 0 .293.13.293.292v1.497Z"/></g><defs><clipPath id="a"><path fill="#fff" d="M0 0h16v16H0z"/></clipPath></defs></svg>