<svg width="49" height="29" fill="none" xmlns="http://www.w3.org/2000/svg"><path d="M47.891 1.994a17.428 17.428 0 0 1-2.226 4.586l.04-.06a243.775 243.775 0 0 1-3.278 5.253c-1.09 1.57-1.666 2.381-1.73 2.437a2.59 2.59 0 0 0-.545 1.254l-.002.015c.055.43.255.806.547 1.086l.817.905c4.37 4.465 6.828 7.543 7.374 9.234a1.802 1.802 0 0 1-.229 1.683l.004-.006a1.976 1.976 0 0 1-1.6.587h.007-5.382c-.689 0-1.322-.24-1.818-.638l.006.004a14.1 14.1 0 0 1-1.942-1.925l-.018-.024a60.18 60.18 0 0 0-2.503-2.67c-2.426-2.293-4.217-3.439-5.371-3.439a1.615 1.615 0 0 0-1.054.274l.006-.004a1.552 1.552 0 0 0-.326 1.186v-.008a25.311 25.311 0 0 0-.078 2.848v-.034 2.353a1.58 1.58 0 0 1-.543 1.537l-.002.002a6.522 6.522 0 0 1-3.302.542l.027.002a17.067 17.067 0 0 1-8.73-2.575l.071.04c-3.085-1.863-5.642-4.289-7.59-7.156l-.055-.085a53.472 53.472 0 0 1-5.046-8.105l-.143-.312C2.417 9.152 1.527 7.15.76 5.09l-.123-.375A13.425 13.425 0 0 1 .004 1.6L0 1.55C0 .522.607.01 1.821.01h5.371a2.17 2.17 0 0 1 1.509.457L8.697.463c.408.445.71.99.86 1.6l.006.024c.988 2.775 2.036 5.106 3.24 7.34l-.136-.279a29.534 29.534 0 0 0 3.314 5.23l-.047-.063c1.089 1.33 1.938 1.994 2.548 1.994a.82.82 0 0 0 .774-.404l.002-.004a3.602 3.602 0 0 0 .227-1.598v.012V6.44a6.491 6.491 0 0 0-.654-2.572l.017.038a5.996 5.996 0 0 0-.92-1.41l.007.007a2.227 2.227 0 0 1-.635-1.256l-.002-.013c0-.345.16-.655.408-.858l.002-.002a1.39 1.39 0 0 1 .94-.362h8.482a1.297 1.297 0 0 1 1.142.45l.002.003a2.749 2.749 0 0 1 .324 1.549v-.01 10.502a1.998 1.998 0 0 0 .278 1.186l-.004-.008a.82.82 0 0 0 .68.361c.36-.024.688-.142.964-.329l-.006.004a7.219 7.219 0 0 0 1.447-1.301l.009-.01a31.691 31.691 0 0 0 3.38-4.568l.079-.142a44.67 44.67 0 0 0 2.15-4.047l.127-.298.91-1.811A2.29 2.29 0 0 1 40.777 0c.039 0 .077 0 .116.002h-.006 5.373c1.45 0 1.995.664 1.633 1.992h-.002Z" fill="#023E73"/></svg>